<svg width="65" height="43" viewBox="0 0 65 43" fill="none" xmlns="http://www.w3.org/2000/svg">
<path d="M49.2589 37.5462C48.0853 40.2774 45.3981 42.0474 42.4255 42.0474H14.114C8.73106 42.0474 5.13085 36.5062 7.31808 31.5877L18.0672 7.4155C19.2613 4.73033 21.9245 3 24.8632 3H52.8129C58.1556 3 61.7557 8.46542 59.6463 13.3741L49.2589 37.5462Z" fill="#D9F3EE"/>
<path d="M26.4167 16.75V9.32812C26.4167 7.67052 25.7583 6.08081 24.5862 4.90871C23.4141 3.73661 21.8244 3.07813 20.1667 3.07812C18.5091 3.07813 16.9194 3.73661 15.7473 4.90871C14.5752 6.08081 13.9167 7.67052 13.9167 9.32812V16.75" stroke="#04034A" stroke-width="2.5" stroke-linecap="round" stroke-linejoin="round"/>
<path d="M28.9167 16.75H11.4167C9.34568 16.75 7.66675 18.4289 7.66675 20.5V34.25C7.66675 36.3211 9.34568 38 11.4167 38H28.9167C30.9878 38 32.6667 36.3211 32.6667 34.25V20.5C32.6667 18.4289 30.9878 16.75 28.9167 16.75Z" stroke="#04034A" stroke-width="2.5" stroke-linecap="round" stroke-linejoin="round"/>
</svg>
