<svg width="65" height="43" viewBox="0 0 65 43" fill="none" xmlns="http://www.w3.org/2000/svg">
<path d="M49.5922 37.5462C48.4185 40.2774 45.7314 42.0474 42.7588 42.0474H14.4473C9.06431 42.0474 5.4641 36.5062 7.65133 31.5877L18.4005 7.4155C19.5946 4.73033 22.2577 3 25.1964 3H53.1462C58.4889 3 62.0889 8.46542 59.9796 13.3741L49.5922 37.5462Z" fill="#D9F3EE"/>
<path d="M33.625 8H7.375C5.64911 8 4.25 9.39911 4.25 11.125V29.875C4.25 31.6009 5.64911 33 7.375 33H33.625C35.3509 33 36.75 31.6009 36.75 29.875V11.125C36.75 9.39911 35.3509 8 33.625 8Z" stroke="#04034A" stroke-width="2.5" stroke-linecap="round" stroke-linejoin="round"/>
<path d="M9.25 13L20.5 21.75L31.75 13" stroke="#04034A" stroke-width="2.5" stroke-linecap="round" stroke-linejoin="round"/>
</svg>
