<svg width="65" height="43" viewBox="0 0 65 43" fill="none" xmlns="http://www.w3.org/2000/svg">
<path d="M49.5922 37.5462C48.4185 40.2774 45.7314 42.0474 42.7588 42.0474H14.4473C9.06431 42.0474 5.4641 36.5062 7.65133 31.5877L18.4005 7.4155C19.5946 4.73033 22.2577 3 25.1964 3H53.1462C58.4889 3 62.0889 8.46542 59.9796 13.3741L49.5922 37.5462Z" fill="#D9F3EE"/>
<path d="M27.3751 11.75C27.0688 15.8805 23.9376 19.25 20.5001 19.25C17.0626 19.25 13.9258 15.8813 13.6251 11.75C13.3126 7.45312 16.3594 4.25 20.5001 4.25C24.6407 4.25 27.6876 7.53125 27.3751 11.75Z" stroke="#04034A" stroke-width="2.5" stroke-linecap="round" stroke-linejoin="round"/>
<path d="M20.4999 24.25C13.7031 24.25 6.80463 28 5.52807 35.0781C5.37416 35.9313 5.85698 36.75 6.74995 36.75H34.2499C35.1437 36.75 35.6265 35.9313 35.4726 35.0781C34.1953 28 27.2968 24.25 20.4999 24.25Z" stroke="#04034A" stroke-width="2.5" stroke-miterlimit="10"/>
</svg>
