<svg width="65" height="43" viewBox="0 0 65 43" fill="none" xmlns="http://www.w3.org/2000/svg">
<path d="M49.9257 37.5462C48.752 40.2774 46.0649 42.0474 43.0923 42.0474H14.7808C9.39781 42.0474 5.7976 36.5062 7.98483 31.5877L18.734 7.4155C19.9281 4.73033 22.5912 3 25.5299 3H53.4797C58.8224 3 62.4224 8.46542 60.3131 13.3741L49.9257 37.5462Z" fill="#D9F3EE"/>
<path d="M27.0835 14.25L18.4272 24.25L14.5835 20.4844" stroke="#04034A" stroke-width="2.5" stroke-linecap="round" stroke-linejoin="round"/>
<path d="M37.0131 9.27891C30.0272 8.02578 27.1389 7.09766 20.8334 4.25C14.528 7.09766 11.6397 8.02578 4.65374 9.27891C3.38812 29.3383 19.6287 36.2648 20.8334 36.75C22.0381 36.2648 38.2787 29.3383 37.0131 9.27891Z" stroke="#04034A" stroke-width="2.5" stroke-linecap="round" stroke-linejoin="round"/>
</svg>
